<?xml version="1.0" encoding="utf-8"?>
<!-- Generator: Adobe Illustrator 20.1.0, SVG Export Plug-In . SVG Version: 6.00 Build 0)  -->
<svg version="1.1" id="Ebene_1" xmlns="http://www.w3.org/2000/svg" xmlns:xlink="http://www.w3.org/1999/xlink" x="0px" y="0px"
	 viewBox="0 0 190 84" style="enable-background:new 0 0 190 84;" xml:space="preserve">
<style type="text/css">
	.st0{fill:#3E3D40;}
	.st1{clip-path:url(#SVGID_2_);fill:#3E3D40;}
	.st2{clip-path:url(#SVGID_2_);fill:#009EE0;}
</style>
<g>
	<polygon class="st0" points="71.8,56.6 74,56.6 77.1,65.9 80.2,56.6 82.5,56.6 82.5,67.6 81.2,67.6 81.2,57.9 81,57.9 77.8,67.2 
		76.4,67.2 73.2,57.9 73,57.9 73,67.6 71.8,67.6 71.8,56.6 	"/>
	<path class="st0" d="M93.1,62.1c0-3-0.6-4.6-3.1-4.6c-2.5,0-3.1,1.6-3.1,4.6c0,3,0.5,4.5,3.1,4.5C92.6,66.7,93.1,65.3,93.1,62.1
		L93.1,62.1z M85.6,62.1c0-3.6,0.9-5.7,4.4-5.7c3.4,0,4.4,2.1,4.4,5.7c0,3.8-0.9,5.6-4.4,5.6C86.6,67.8,85.6,65.8,85.6,62.1
		L85.6,62.1z"/>
	<path class="st0" d="M98.7,62.5v4h2.9c1.3,0,2.2-0.4,2.2-2.1c0-1.7-1.5-1.9-2.3-1.9H98.7L98.7,62.5z M98.7,57.7v3.8h2.8
		c1.4,0,2-0.7,2-2c0-1.3-0.7-1.8-2.1-1.8H98.7L98.7,57.7z M101.5,56.6c2.2,0,3.3,0.8,3.3,2.8c0,1.4-0.5,2.1-1.4,2.5
		c1,0.3,1.8,1,1.8,2.6c0,2.3-1.3,3.1-3.4,3.1h-4.2v-11H101.5L101.5,56.6z"/>
	<polygon class="st0" points="108.3,56.6 109.5,56.6 109.5,67.6 108.3,67.6 108.3,56.6 	"/>
	<polygon class="st0" points="113.1,67.6 113.1,56.6 114.3,56.6 114.3,66.5 119.2,66.5 119.2,67.6 113.1,67.6 	"/>
	<polygon class="st0" points="121.6,56.6 122.9,56.6 122.9,67.6 121.6,67.6 121.6,56.6 	"/>
	<polygon class="st0" points="125.3,56.6 133.3,56.6 133.3,57.7 129.9,57.7 129.9,67.6 128.7,67.6 128.7,57.7 125.3,57.7 
		125.3,56.6 	"/>
	<g>
		<defs>
			<rect id="SVGID_1_" x="0" width="189.7" height="84"/>
		</defs>
		<clipPath id="SVGID_2_">
			<use xlink:href="#SVGID_1_"  style="overflow:visible;"/>
		</clipPath>
		<polygon class="st1" points="139.3,67.6 138.1,67.6 138.1,63 134.6,56.6 136,56.6 138.7,61.7 141.5,56.6 142.9,56.6 139.3,63 
			139.3,67.6 		"/>
		<path class="st2" d="M46.8,15.6c-1.4-1.3-4.8-1-6.9-0.2c-2.2,0.8-4.7,1.9-7.2,3.7c-2.5,1.7-4.9,4.1-7.1,7
			c-2.3,2.9-4.1,6.2-5.3,9.9c1.2,0.2,3,0.3,5.4,0.4c2.4,0.1,5.4-0.5,9-1.8c3.5-1.3,6.2-2.8,8.1-4.4c1.9-1.6,3.2-3.2,4-4.8
			c1.1-2.4,1.6-4.5,1.6-5.8C48.3,18.3,48.2,16.8,46.8,15.6L46.8,15.6z M55.9,47.7c1.3-2,2.3-3.5,3.5-4.4c1.2-0.9,2.2-1.2,3.1-1
			c0.9,0.2,1.4,1,1.5,2.2c0.1,1.3-0.3,3-1.4,5.3c-0.7,1.5-1.5,3.1-3.2,6c-1.7,2.9-3.6,5.5-6.2,8.7c-2.6,3.2-5.7,6.4-9.1,9.3
			c-3.4,2.9-7,5.2-10.8,7.1c-3.8,1.8-7.8,2.8-12,3.1c-4.1,0.2-8.8-0.8-12.7-3.3c-3.9-2.6-5.9-5-7.2-9.1c-1.3-4.1-1.7-8.7-1.3-13.8
			c0.5-5.1,1.7-10.5,3.7-16.2c2-5.7,4.6-11,7.6-16c2.9-4.8,6.2-9.1,10-13c3.7-3.9,7.6-6.8,11.6-8.9c4-2.1,8.4-3.2,12.3-3.5
			c3.9-0.3,9.5,0.5,12.5,3.1c3,2.6,4.1,6.2,4.3,9.7c0.2,3.3,0,6.5-1,9.9c-1,3.5-2.9,6.8-6,10.2c-3,3.3-7.3,6.2-12.7,8.8
			c-2.4,1.1-4.8,1.8-7.3,2.2c-2.5,0.4-4.8,0.5-7,0.5c-2.2,0-4.3-0.2-6.2-0.6c-1.9-0.3-3.3-0.6-4.6-0.9c-0.6,2.1-1.1,4.3-1.6,6.7
			c-0.5,2.4-0.8,4.8-0.9,7c-0.1,2.2,0.1,4.3,0.6,6.1c0.5,1.8,1.4,3.1,2.9,4c3.1,2,6.7,2.4,10.7,1.4c4-1.1,7.9-2.8,11.6-5.3
			c3.7-2.4,5.9-4.1,9.2-7.4C52.9,52.2,54.7,49.7,55.9,47.7L55.9,47.7z"/>
	</g>
	<path class="st0" d="M101.4,46.3c0,1.3-1.1,2.6-2.4,2.8c0,0-4.5,0.8-8.4,0.8c-14.4,0-21.6-7-21.6-21c0-13,7.2-19.5,21.6-19.5
		c3.9,0,8.4,0.8,8.4,0.8c1.3,0.2,2.4,1.5,2.4,2.8v1.4c0,1.3-1.1,2.3-2.4,2.1c0,0-4.7-0.8-8.8-0.8c-9.4,0-14.1,4.1-14.1,13.2
		c0,10.2,4.7,14.8,14.1,14.8c4.1,0,8.8-0.8,8.8-0.8c1.3-0.2,2.4,0.7,2.4,2.1V46.3L101.4,46.3z"/>
	<path class="st0" d="M125,31c-6.2,0-9.3,2.2-9.3,6.6c0,4.4,2.4,6.6,7.3,6.6c4.9,0,10.4-2.8,10.4-2.8c1.2-0.6,2.2-2.2,2.2-3.6v-3.5
		c0-1.3-1.1-2.6-2.4-2.7C133.1,31.5,128.5,31,125,31L125,31z M108.5,37.6c0-8.3,5.5-12.5,16.4-12.5c3.5,0,8.1,0.5,8.1,0.5
		c1.3,0.1,2.4-0.6,2.4-1.6c0-1.1-0.2-8.9-10.9-8.9c-4.2,0-10.4,1.4-10.4,1.4c-1.3,0.3-2.4-0.6-2.4-1.9v-0.9c0-1.3,1.1-2.7,2.4-3
		c0,0,6.3-1.4,10.4-1.4c18.1,0,18.1,13.7,18.1,15v23.1c0,1.3-0.9,2.4-2,2.4c-1.4,0-2.6-0.9-3.2-2s-2.2-1.5-3.4-1c0,0-6.2,3-11,3
		C113.4,49.9,108.5,45.8,108.5,37.6L108.5,37.6z"/>
	<path class="st0" d="M160.1,39.2c0,1.3,1,2.8,2.3,3.3c0,0,4.1,1.3,7.5,1.3c8.4,0,12.6-5.1,12.6-15.2c0-8.8-4.2-13.2-12.5-13.2
		c-3.6,0-7.5,0.5-7.5,0.5c-1.3,0.2-2.4,1.5-2.4,2.8V39.2L160.1,39.2z M153.5,13.5c0-1.3,1.1-2.6,2.4-2.8c0,0,8.5-1.3,14.3-1.3
		c13,0,19.5,6.4,19.5,19.3c0,14.2-6.5,21.3-19.6,21.3c-3.2,0-7.6-1.2-7.6-1.2c-1.3-0.4-2.3,0.4-2.3,1.7v17.8c0,1.3-0.6,2.4-2,2.4
		h-2.3c-1.3,0-2.4-1.1-2.4-2.4V13.5L153.5,13.5z"/>
</g>
</svg>
